<?xml version="1.0" encoding="utf-8"?>
<!-- Generator: Adobe Illustrator 16.0.0, SVG Export Plug-In . SVG Version: 6.00 Build 0)  -->
<!DOCTYPE svg PUBLIC "-//W3C//DTD SVG 1.1//EN" "http://www.w3.org/Graphics/SVG/1.1/DTD/svg11.dtd">
<svg version="1.1" id="Слой_1" xmlns="http://www.w3.org/2000/svg" xmlns:xlink="http://www.w3.org/1999/xlink" x="0px" y="0px"
	 width="177px" height="42px" viewBox="0 0 177 42" enable-background="new 0 0 177 42" xml:space="preserve">
<path d="M71,4.8v5.7h12.2v3.9H71v6.1h15.4v3.9h-20V0.9h19.2v3.9H71z M46.5,15.8h-6.9V24.4h-4.5V0.8h13.6c4.7,0,7.8,3,7.8,7.5
	c0,4.2-2.6,6.3-5.1,6.9L51,15.3l5.4,9.101h-5.2L46.6,16L46.5,15.8z M39.6,11.9h8.3c2.3,0,3.9-1.5,3.9-3.6c0-2.1-1.6-3.6-3.9-3.6
	h-8.3V11.9z M13,25.3c4.4,0,9-1.8,11.5-4.5v-9.2H13.2v4h6.6v3.5l-0.1,0.1c-1.1,1-4.4,2-6.7,2c-4.7,0-8.2-3.6-8.2-8.5
	c0-5,3.4-8.5,8.2-8.5c2.7,0,5.9,1.4,7.2,3.2L24,5.2C22.2,2.5,18.2,0,13,0C5.5,0,0,5.3,0,12.6C0,20,5.5,25.3,13,25.3z M106.4,10.1
	c-2.801-0.6-5.2-1.2-5.2-3c0-1.7,1.399-2.7,3.8-2.7c2.1,0,5.3,0.7,7.5,2.5l2.5-3.3c-2.3-2-5.7-3.1-9.5-3.1c-5.2,0-8.8,2.9-8.8,7
	c0,5.1,4.8,6.2,9,7.2c2.899,0.7,5.5,1.2,5.5,3.2c0,1.5-1.9,3-5,3c-3.8,0-6.3-1.8-7.601-3.1L96,21.2c2.4,2.399,5.7,3.6,9.8,3.6
	c6,0,9.9-2.899,9.9-7.4C115.6,12.2,110.5,11,106.4,10.1z M134.4,10.1c-2.801-0.6-5.2-1.2-5.2-3c0-1.7,1.399-2.7,3.8-2.7
	c2.1,0,5.3,0.7,7.5,2.5l2.5-3.3c-2.3-2-5.7-3.1-9.5-3.1c-5.2,0-8.8,2.9-8.8,7c0,5.1,4.8,6.2,9,7.2c2.899,0.7,5.5,1.2,5.5,3.2
	c0,1.5-1.9,3-5,3c-3.8,0-6.3-1.8-7.601-3.1l-2.399,3.4c2.399,2.399,5.7,3.6,9.8,3.6c6,0,9.9-2.899,9.9-7.4
	C143.6,12.2,138.5,11,134.4,10.1z M177,12.7c0,6.9-5.5,12.2-12.8,12.2s-12.7-5.2-12.7-12.2S157,0.5,164.2,0.5
	C171.5,0.5,177,5.7,177,12.7z M172.3,12.7c0-4.7-3.5-8.2-8.1-8.2c-4.601,0-8.101,3.5-8.101,8.2c0,4.7,3.5,8.2,8.101,8.2
	C168.9,20.9,172.3,17.4,172.3,12.7z M28.028,35.319h0.897v6.48h-0.463l-3.824-4.46V41.9H23.74v-6.48h0.567l3.721,4.537V35.319z
	 M19.253,41.551v0.35h-0.806l-0.797-1.695h-2.974L13.878,41.9h-0.906l0.023-0.454l2.859-6.127h0.517L19.253,41.551z M17.216,39.308
	l-1.104-2.354l-1.104,2.354H17.216z M58.048,35.319l2.883,6.231v0.35h-0.806l-0.798-1.695h-2.974L55.555,41.9h-0.906l0.023-0.454
	l2.859-6.127H58.048z M58.994,39.308l-1.104-2.354l-1.104,2.354H58.994z M47.321,38.82l-2.362-3.4H44.38v6.48h0.897v-4.361
	l1.917,2.666h0.358l1.813-2.638V41.9h0.897v-6.48h-0.579L47.321,38.82z M7.488,38.012H4.397V35.42H3.5v6.48h0.897v-2.892h3.091V41.9
	h0.997v-6.48H7.488V38.012z M39.594,38.66c0,1.907-1.292,3.24-3.141,3.24H34.11v-6.48h2.343C38.515,35.42,39.594,37.05,39.594,38.66
	z M38.597,38.66c0-1.336-0.965-2.344-2.244-2.344h-1.346v4.687h1.346C37.674,41.003,38.597,40.04,38.597,38.66z M164.526,37.464
	c0,0.271-0.046,0.946-0.473,1.372l-2.036,3.064h-1.104l1.568-2.306c-0.142,0.012-0.279,0.012-0.399,0.012
	c-1.164,0-2.343-0.736-2.343-2.143c0-1.304,0.96-2.145,2.443-2.145C163.629,35.319,164.526,36.142,164.526,37.464z M163.529,37.363
	c0-1.022-0.775-1.243-1.433-1.246c-0.36,0.042-1.459,0.263-1.459,1.347c0,1.029,0.786,1.246,1.445,1.246
	C162.802,38.71,163.529,38.247,163.529,37.363z M129.629,39.009h2.892v-0.897h-2.892v-1.795h2.991V35.42h-3.988v6.48h4.088v-0.897
	h-3.091V39.009z M71.001,38.66c0,1.907-1.292,3.24-3.141,3.24h-2.343v-6.48h2.343C69.923,35.42,71.001,37.05,71.001,38.66z
	 M70.004,38.66c0-1.336-0.964-2.344-2.243-2.344h-1.346v4.687h1.346C69.082,41.003,70.004,40.04,70.004,38.66z M155.553,37.464
	c0,0.271-0.046,0.946-0.473,1.372l-2.036,3.064h-1.104l1.568-2.306c-0.142,0.012-0.279,0.012-0.399,0.012
	c-1.164,0-2.343-0.736-2.343-2.143c0-1.304,0.96-2.145,2.443-2.145C154.655,35.319,155.553,36.142,155.553,37.464z M154.556,37.363
	c0-1.022-0.775-1.243-1.433-1.246c-0.36,0.042-1.459,0.263-1.459,1.347c0,1.029,0.786,1.246,1.445,1.246
	C153.828,38.71,154.556,38.247,154.556,37.363z M118.661,38.66c0,1.438,0.963,2.442,2.343,2.442c0.94,0,1.709-0.481,1.957-1.226
	l0.057-0.17h0.925l-0.108,0.328c-0.404,1.212-1.527,1.965-2.93,1.965c-1.907,0-3.24-1.373-3.24-3.34
	c0.107-1.941,1.512-3.341,3.34-3.341c1.286,0,2.423,0.747,2.828,1.858l0.121,0.335h-0.917l-0.066-0.147
	c-0.318-0.719-1.054-1.148-1.966-1.148C119.624,36.217,118.661,37.222,118.661,38.66z M118.504,40.124
	c-0.219-0.422-0.34-0.916-0.341-1.457c0,0.002,0,0.005,0,0.007C118.163,39.218,118.283,39.71,118.504,40.124z M173.5,37.464
	c0,0.271-0.046,0.946-0.473,1.372l-2.036,3.064h-1.003l1.568-2.306c-0.143,0.012-0.279,0.012-0.399,0.012
	c-1.164,0-2.344-0.736-2.344-2.143c0-1.481,1.178-2.145,2.344-2.145C172.603,35.319,173.5,36.142,173.5,37.464z M172.503,37.363
	c0-1.022-0.775-1.243-1.433-1.246c-0.36,0.042-1.459,0.263-1.459,1.347c0,1.029,0.786,1.246,1.445,1.246
	C171.775,38.71,172.503,38.247,172.503,37.363z M143.488,36.316h1.097V42h0.897v-6.481h-1.994V36.316z M93.228,38.214l-0.069-0.009
	c-0.916-0.113-1.517-0.241-1.517-0.941c0-0.827,0.945-1.047,1.444-1.047c0.535,0,1.462,0.206,1.549,0.975l0.023,0.223h0.871v-0.25
	c0-1.155-0.913-1.845-2.443-1.845c-1.151,0-2.343,0.728-2.343,1.944c0,1.525,1.575,1.667,2.389,1.739l0.271,0.058
	c0.887,0.186,1.429,0.333,1.431,0.968c-0.089,0.792-0.941,1.074-1.646,1.074c-0.676,0-1.664-0.333-1.747-1.074l-0.024-0.223h-0.893
	l0.022,0.271C90.656,41.405,91.952,42,93.187,42c1.266,0,2.542-0.601,2.542-1.944C95.729,38.632,94.399,38.41,93.228,38.214z
	 M112.081,39.957l-3.722-4.537h-0.566v6.48h0.897V37.34l3.824,4.46h0.463v-6.48h-0.896V39.957z M76.785,39.009h2.891v-0.897h-2.891
	v-1.795h2.991V35.42h-3.988v6.48h4.088v-0.897h-3.091V39.009z M101.113,42h0.896v-6.481h-0.896V42z"/>
</svg>
